<?xml version="1.0" encoding="UTF-8" standalone="no"?>
<!DOCTYPE svg PUBLIC "-//W3C//DTD SVG 1.1//EN"
 "http://www.w3.org/Graphics/SVG/1.1/DTD/svg11.dtd">
<!-- Generated by graphviz version 15.1.1 (20260805.0921)
 -->
<!-- Title: graphviz_selfloop Pages: 1 -->
<svg width="326pt" height="229pt"
 viewBox="0.00 0.00 326.00 229.00" xmlns="http://www.w3.org/2000/svg" xmlns:xlink="http://www.w3.org/1999/xlink">
<g id="graph0" class="graph" transform="scale(1 1) rotate(0) translate(4 225.02)">
<title>graphviz_selfloop</title>
<polygon fill="white" stroke="none" points="-4,4 -4,-225.02 321.89,-225.02 321.89,4 -4,4"/>
<!-- retry -->
<g id="node1" class="node">
<title>retry</title>
<ellipse fill="#bebada" stroke="black" cx="31.39" cy="-189.12" rx="31.39" ry="31.39"/>
<text xml:space="preserve" text-anchor="middle" x="31.39" y="-184.07" font-family="Times,serif" font-size="14.00">Retry</text>
</g>
<!-- retry&#45;&gt;retry -->
<g id="edge1" class="edge">
<title>retry&#45;&gt;retry</title>
<path fill="none" stroke="black" d="M62.26,-195.87C72.55,-195.87 80.78,-193.62 80.78,-189.12 80.78,-186.45 77.88,-184.57 73.37,-183.48"/>
<polygon fill="black" stroke="black" points="74.07,-180.04 63.77,-182.52 73.37,-187 74.07,-180.04"/>
<text xml:space="preserve" text-anchor="middle" x="101.41" y="-184.07" font-family="Times,serif" font-size="14.00">backoff</text>
</g>
<!-- work -->
<g id="node2" class="node">
<title>work</title>
<ellipse fill="#bebada" stroke="black" cx="267.98" cy="-189.12" rx="31.9" ry="31.9"/>
<text xml:space="preserve" text-anchor="middle" x="267.98" y="-184.07" font-family="Times,serif" font-size="14.00">Work</text>
</g>
<!-- retry&#45;&gt;work -->
<g id="edge3" class="edge">
<title>retry&#45;&gt;work</title>
<path fill="none" stroke="black" d="M62.81,-189.12C104.29,-189.12 177.55,-189.12 224.38,-189.12"/>
<polygon fill="black" stroke="black" points="224.16,-192.62 234.16,-189.12 224.16,-185.62 224.16,-192.62"/>
</g>
<!-- right -->
<g id="node4" class="node">
<title>right</title>
<ellipse fill="#bebada" stroke="black" cx="267.98" cy="-31.39" rx="31.39" ry="31.39"/>
<text xml:space="preserve" text-anchor="middle" x="267.98" y="-26.34" font-family="Times,serif" font-size="14.00">Right</text>
</g>
<!-- retry&#45;&gt;right -->
<g id="edge5" class="edge">
<title>retry&#45;&gt;right</title>
<path fill="none" stroke="black" d="M57.61,-171.64C100.16,-143.27 184.29,-87.18 232.27,-55.2"/>
<polygon fill="black" stroke="black" points="234,-58.25 240.38,-49.79 230.12,-52.43 234,-58.25"/>
</g>
<!-- work&#45;&gt;work -->
<g id="edge2" class="edge">
<title>work&#45;&gt;work</title>
<path fill="none" stroke="black" d="M299.66,-195.87C309.83,-195.8 317.89,-193.55 317.89,-189.12 317.89,-186.56 315.19,-184.73 310.95,-183.62"/>
<polygon fill="black" stroke="black" points="311.49,-180.16 301.16,-182.54 310.72,-187.12 311.49,-180.16"/>
</g>
<!-- left -->
<g id="node3" class="node">
<title>left</title>
<ellipse fill="#bebada" stroke="black" cx="31.39" cy="-31.39" rx="26.27" ry="26.27"/>
<text xml:space="preserve" text-anchor="middle" x="31.39" y="-26.34" font-family="Times,serif" font-size="14.00">Left</text>
</g>
<!-- left&#45;&gt;work -->
<g id="edge4" class="edge">
<title>left&#45;&gt;work</title>
<path fill="none" stroke="black" d="M53.65,-46.23C94.63,-73.55 182.35,-132.03 231.92,-165.08"/>
<polygon fill="black" stroke="black" points="229.78,-167.86 240.05,-170.49 233.67,-162.04 229.78,-167.86"/>
</g>
</g>
</svg>
